<?xml version="1.0" standalone="no"?><!DOCTYPE svg PUBLIC "-//W3C//DTD SVG 1.1//EN" "http://www.w3.org/Graphics/SVG/1.1/DTD/svg11.dtd"><svg t="1635949140621" class="icon" viewBox="0 0 1024 1024" version="1.1" xmlns="http://www.w3.org/2000/svg" p-id="4323" xmlns:xlink="http://www.w3.org/1999/xlink" width="200" height="200"><defs><style type="text/css"></style></defs><path d="M512 28.9792A483.0208 483.0208 0 1 0 995.0208 512 483.5328 483.5328 0 0 0 512 28.9792z m0 913.7152A430.7968 430.7968 0 1 1 942.7968 512 431.3088 431.3088 0 0 1 512 942.7968z" fill="" p-id="4324"></path><path d="M700.2112 463.6672c0-0.8192 1.2288-5.8368 10.24-35.4304 12.1856-39.2192 21.0944-70.9632 26.4192-93.5936 7.0656-20.48 6.7584-35.4304-0.9216-45.4656s-20.992-13.6192-39.8336-12.0832h-91.136c-20.48-3.2768-34.6112-0.512-43.2128 8.192a38.0928 38.0928 0 0 0-7.168 34.9184v422.2976c0 8.2944 3.3792 22.528 27.648 24.8832a26.9312 26.9312 0 0 0 26.2144-24.8832V338.6368c0-8.0896 3.4816-9.3184 5.7344-10.24h59.1872a10.24 10.24 0 0 1 7.168 2.048 13.4144 13.4144 0 0 1 0.7168 10.24 566.8864 566.8864 0 0 1-34.5088 103.6288c-7.5776 22.8352-7.9872 28.672-5.5296 32.0512A204.8 204.8 0 0 0 653.824 501.76a207.0528 207.0528 0 0 1 43.6224 122.88 23.7568 23.7568 0 0 1-4.608 21.0944c-6.8608 6.8608-21.8112 9.0112-44.032 6.144a30.72 30.72 0 0 0-33.0752 26.9312c0 17.408 10.24 26.9312 28.8768 26.9312 40.96 0.6144 70.5536-7.3728 87.8592-24.3712a66.6624 66.6624 0 0 0 18.6368-49.9712c-5.632-72.8064-20.48-121.4464-43.6224-147.456-8.2944-14.7456-7.5776-18.7392-7.2704-20.2752zM520.4992 345.8048a38.0928 38.0928 0 0 0-30.72-9.6256h-62.8736v-55.5008c-1.2288-10.24-7.168-21.9136-29.5936-24.064a23.7568 23.7568 0 0 0-24.1664 24.8832v54.6816h-60.416a38.1952 38.1952 0 0 0-30.72 9.728 43.52 43.52 0 0 0-8.8064 35.5328v274.6368a41.5744 41.5744 0 0 0 8.3968 34.304 35.7376 35.7376 0 0 0 27.0336 10.24h179.2c27.8528 0 43.2128-14.6432 43.2128-40.96V381.7472a45.6704 45.6704 0 0 0-10.5472-35.9424zM477.0816 532.48v102.4a15.36 15.36 0 0 1-2.7648 10.24 9.4208 9.4208 0 0 1-6.9632 1.024h-40.448V532.48z m0-137.1136v83.2512h-50.176v-88.576h40.3456c9.8304 0 9.8304 3.3792 9.8304 5.7344zM373.1456 532.48v113.7664h-36.352a12.288 12.288 0 0 1-8.8064-2.3552 10.24 10.24 0 0 1-1.024-7.4752V532.48z m-46.1824-135.68a5.2224 5.2224 0 0 1 0.6144-4.1984c0.512-0.6144 2.9696-2.6624 11.264-2.6624h34.304v88.8832h-46.08v-81.92z" fill="" p-id="4325"></path></svg>