<?xml version="1.0" standalone="no"?><!DOCTYPE svg PUBLIC "-//W3C//DTD SVG 1.1//EN" "http://www.w3.org/Graphics/SVG/1.1/DTD/svg11.dtd"><svg t="1635941877020" class="icon" viewBox="0 0 1024 1024" version="1.1" xmlns="http://www.w3.org/2000/svg" p-id="3244" xmlns:xlink="http://www.w3.org/1999/xlink" width="200" height="200"><defs><style type="text/css"></style></defs><path d="M875.52 271.36h-120.9856c-28.2112-106.1376-124.928-184.32-239.9744-184.32S302.7968 165.2224 274.5856 271.36H148.48c-33.792 0-61.44 27.648-61.44 61.44v542.72c0 33.792 27.648 61.44 61.44 61.44h727.04c33.792 0 61.44-27.648 61.44-61.44V332.8c0-33.792-27.648-61.44-61.44-61.44z m-360.96-143.36c92.0064 0 170.1888 60.2624 197.2736 143.36H317.3376c27.0336-83.0976 105.216-143.36 197.2224-143.36zM896 875.52c0 11.1104-9.3696 20.48-20.48 20.48H148.48c-11.1104 0-20.48-9.3696-20.48-20.48V332.8c0-11.1104 9.3696-20.48 20.48-20.48h727.04c11.1104 0 20.48 9.3696 20.48 20.48v542.72z" fill="#666666" p-id="3245"></path><path d="M361.1648 628.5824L288.9216 499.4048h-31.232v174.3872h27.8528v-127.1808l72.0384 127.1808h31.4368V499.4048h-27.8528zM441.7024 499.4048h-11.8784v174.5408h114.4832v-27.4944H458.496v-45.5168h72.6528v-27.3408H458.496v-46.6944h85.8112v-27.4944H458.496zM732.416 499.4048l-26.624 126.6176-34.6112-126.6176h-21.6064l-34.56 126.6176-26.624-126.6176h-29.6448l41.4208 174.5408h27.9552l33.024-121.9584 31.5392 121.9584h27.9552l41.4208-174.5408z" fill="#666666" p-id="3246"></path></svg>